<svg xmlns="http://www.w3.org/2000/svg" width="48" height="48" viewBox="0 0 48 48"><path fill="#ffff00" d="M 11.713497,44.996935 C 11.007692,44.97134 10.389236,44.885784 9.7662438,44.727556 8.9912889,44.530734 8.3219482,44.257959 7.5856984,43.83892 6.7675229,43.373253 5.9970121,42.767943 5.4120655,42.131319 4.7387841,41.398559 4.1918372,40.571782 3.7569677,39.629435 3.5433853,39.166611 3.3474834,38.583509 3.225843,38.048544 3.1034238,37.510157 3.0371393,37.023053 3.0060355,36.433267 c -0.00804,-0.151913 -0.00804,-0.753466 -6e-5,-0.901766 0.03559,-0.660483 0.1195807,-1.227605 0.2661619,-1.797202 0.1573074,-0.611275 0.3636246,-1.156536 0.6601969,-1.744787 0.6514724,-1.292194 1.5439539,-2.363015 2.6795197,-3.214952 0.5834893,-0.437753 1.2207889,-0.802253 1.9464024,-1.113234 0.9083569,-0.389304 1.8598156,-0.61485 2.8600656,-0.677987 0.04346,-0.0027 0.116676,-0.0074 0.162695,-0.01024 0.05951,-0.0037 0.736331,-0.0057 2.343966,-0.007 1.243163,-9.54e-4 2.260296,-5.96e-4 2.260296,7.6e-4 0,0.0013 -0.231144,0.464733 -0.513653,1.029729 l -0.513653,1.027266 -1.653674,4.6e-5 c -1.027847,0 -1.696774,0.0018 -1.76756,0.0047 -0.993742,0.04073 -1.90519,0.278527 -2.8191972,0.735522 -0.6516517,0.325821 -1.2532386,0.752013 -1.7566946,1.244525 -0.281215,0.2751 -0.4853941,0.505337 -0.7008096,0.790245 -0.5519749,0.730045 -0.9703474,1.592051 -1.1911852,2.454292 -0.1096824,0.428244 -0.1740989,0.84819 -0.203565,1.327083 -0.00813,0.132489 -0.00813,0.682589 5.42e-5,0.808801 0.062357,0.963383 0.2680116,1.766962 0.6659212,2.602063 0.3222392,0.676291 0.7544166,1.303846 1.2790675,1.857305 0.3107916,0.327857 0.8001948,0.721588 1.2470648,1.003282 0.9814377,0.618667 2.0265489,0.972245 3.1493059,1.065457 0.22639,0.0188 0.273809,0.02039 0.692615,0.02316 0.276311,0.0018 0.420419,0.0044 0.419916,0.0074 -0.192208,0.714873 -0.09641,1.346304 -0.0067,2.020839 L 12.521638,45 c -0.269391,1.32e-4 -0.538793,-0.0021 -0.808169,-0.0032 z m 4.843656,-0.0017 c -0.230485,-0.02822 -0.427198,-0.125601 -0.599104,-0.296582 -0.170352,-0.169436 -0.266964,-0.353236 -0.301104,-0.572846 -0.01149,-0.07386 -0.01132,-0.216667 3.17e-4,-0.280774 0.01405,-0.07739 0.03875,-0.171651 0.06779,-0.258654 0.196193,-0.57547 0.487548,-1.097803 0.763186,-1.606462 0.186012,-0.288322 0.278012,-0.536623 0.402229,-0.782097 -0.06123,-0.09888 -0.117517,-0.190318 -0.183152,-0.296614 -0.210798,-0.36761 -0.336714,-0.757616 -0.379962,-1.176872 -0.03152,-1.448331 -0.02064,-2.073827 -0.0059,-3.895258 0.01099,-0.06725 0.02905,-0.138131 0.04856,-0.19058 4.276925,-8.574818 7.62987,-15.263388 12.17458,-24.364078 -0.0034,-0.0033 -1.892392,-0.932007 -1.893457,-0.930832 -1.796526,3.588035 -3.197216,6.401349 -5.11211,10.211972 -0.0395,0.06253 -0.07579,0.108623 -0.128857,0.16366 -0.161469,0.167452 -0.356053,0.268626 -0.583377,0.303322 -0.07722,0.01179 -0.239243,0.01184 -0.311444,9.9e-5 -0.212884,-0.03461 -0.382772,-0.120313 -0.545295,-0.275052 -0.204681,-0.194875 -0.308306,-0.409514 -0.32645,-0.676177 -0.0095,-0.139313 0.01407,-0.275978 0.07797,-0.452368 0.02134,-0.05894 5.041497,-10.1014392 5.096141,-10.1945161 0.189782,-0.3232627 0.407776,-0.5571718 0.713289,-0.7653693 0.360903,-0.2459433 0.750758,-0.3518776 1.228515,-0.3338209 0.245482,0.0093 0.455298,0.046008 0.68118,0.11924 0.73652,0.3151635 1.343612,0.656191 2.020271,1.0014126 0.556779,-1.1147767 1.114328,-2.2292548 1.674891,-3.3420877 0.09063,-0.1453308 0.20547,-0.2524582 0.34639,-0.3231302 0.144365,-0.0724 0.281964,-0.1096036 0.438745,-0.1186283 0.07695,-0.00443 0.192171,6.755e-4 0.252602,0.011193 0.08506,0.014803 0.104006,0.021751 0.30912,0.1133665 l 0.10459,0.046715 c 0.27668,-0.5695618 0.566386,-1.1364617 0.837835,-1.6568322 0.11266,-0.1889988 0.25015,-0.3914587 0.326861,-0.4813156 0.139829,-0.1637892 0.296998,-0.2996655 0.473873,-0.4096724 0.06798,-0.042283 0.198276,-0.1131105 0.251015,-0.1364528 0.161012,-0.071266 0.333828,-0.1146752 0.55781,-0.1401158 0.105248,-0.01195 0.442037,-0.012038 0.540442,-1.405e-4 0.256153,0.030981 0.457617,0.083247 0.683619,0.1773536 0.09028,0.037591 2.223245,1.1040933 2.311064,1.1555515 0.281363,0.1648668 0.510225,0.3651111 0.687756,0.6017579 0.112073,0.1493894 0.181099,0.2586901 0.237414,0.3759304 0.08742,0.1820007 0.139714,0.3717444 0.167982,0.6095048 0.01208,0.1015431 0.01212,0.4136193 7.4e-5,0.5229315 -0.03116,0.2827521 -0.1017,0.5400091 -0.216067,0.7878833 -0.261897,0.5163551 -0.47613,0.9527645 -0.706197,1.4177254 l -0.0027,0.1217848 -0.0027,0.121785 c 0.144208,0.062019 0.272104,0.1893188 0.36924,0.2569019 0.128934,0.1332381 0.224582,0.2998082 0.269134,0.4686947 0.02394,0.090757 0.02787,0.1250532 0.02804,0.2440346 1.3e-4,0.098104 -0.0011,0.1178639 -0.01044,0.1638313 -0.0115,0.05674 -0.04092,0.152365 -0.07403,0.240569 -6.225885,12.453388 -8.166975,16.428127 -14.78132,29.591656 -0.076,0.129132 -0.187256,0.240357 -0.31462,0.314538 -1.60806,0.725615 -3.02875,1.708273 -4.572896,2.129341 -0.369551,0.06956 -0.648772,-0.0099 -0.972681,-0.03434 -0.0019,-4.6e-5 -0.253216,0.499352 -0.558443,1.109729 -0.394399,0.788699 -0.564285,1.123897 -0.587195,1.158584 -0.155528,0.235479 -0.398075,0.393712 -0.677708,0.442121 -0.0635,0.01099 -0.234605,0.01593 -0.295175,0.0085 z m 2.769102,-4.725047 c 0.08293,-0.01315 0.177109,-0.04455 0.387176,-0.129073 1.117866,-0.497907 2.079851,-1.022421 3.078491,-1.551353 l 0.101176,-0.05104 c 4.695027,-9.401583 9.406176,-18.795126 14.097613,-28.1985 -0.0043,-0.0039 -4.532568,-2.2663111 -4.533738,-2.2651231 -4.548628,9.0826451 -9.859806,19.7065421 -14.086936,28.1482291 -9.23e-4,1.091267 -3.12e-4,2.182778 0.0048,3.273904 0.02134,0.211023 0.110842,0.393163 0.266058,0.541483 0.149845,0.143188 0.33558,0.226506 0.530926,0.238165 0.05692,0.0072 0.112335,-0.0049 0.154434,-0.0067 z M 37.653161,6.1772713 c -0.85515,-0.424766 -1.598349,-0.7920997 -2.346372,-1.1621679 -0.291482,0.581171 -0.581614,1.1630622 -0.871549,1.7449813 0.794052,0.3996874 1.595416,0.7926017 2.33325,1.1577617 0.0064,0.00367 0.01267,0.00687 0.01396,0.00709 0.309916,-0.6092105 0.563381,-1.1236449 0.870711,-1.7476651 z M 34.476819,29.021672 c 0.360746,-0.725119 0.637261,-1.276894 1.027305,-2.05695 1.545584,4.69e-4 3.091281,6.16e-4 4.636797,-0.0048 0.480212,-0.02614 0.896372,-0.148664 1.310854,-0.385956 0.556721,-0.318724 1.006867,-0.827382 1.264161,-1.428473 0.114763,-0.268109 0.182664,-0.539193 0.214972,-0.858248 0.01183,-0.11685 0.01182,-0.459646 0,-0.576386 -0.05675,-0.559601 -0.241965,-1.036015 -0.571459,-1.469858 -0.127358,-0.167689 -0.372564,-0.41944 -0.550329,-0.565019 -0.422572,-0.346057 -0.928808,-0.5597 -1.472141,-0.621274 -0.09953,-0.01128 -0.182718,-0.01652 -0.335501,-0.02113 -0.145446,-0.0044 -0.19394,-0.0095 -0.269609,-0.02842 -0.178022,-0.04452 -0.332754,-0.134922 -0.476569,-0.278459 -0.213792,-0.213375 -0.316517,-0.470104 -0.30504,-0.762348 0.01012,-0.257561 0.102374,-0.469975 0.287983,-0.663042 0.173432,-0.180403 0.363276,-0.281868 0.591736,-0.316266 0.09827,-0.0148 0.379557,-0.01 0.613099,0.01044 0.610503,0.05346 1.157337,0.208233 1.73851,0.492037 0.525215,0.256478 0.969191,0.575731 1.378315,0.991115 0.302829,0.307459 0.550532,0.63329 0.764547,1.005689 0.282219,0.491079 0.484492,1.020197 0.582844,1.524637 0.07069,0.362594 0.09712,0.667291 0.09211,1.062131 -0.0027,0.204422 -0.0051,0.256986 -0.01978,0.418346 -0.06119,0.671486 -0.257317,1.314795 -0.579641,1.901179 -0.247336,0.449964 -0.533962,0.828417 -0.901208,1.189926 -0.158344,0.155872 -0.277352,0.259943 -0.45044,0.393902 -0.539337,0.417412 -1.214785,0.744785 -1.87157,0.907103 -0.278379,0.06879 -0.521566,0.105389 -0.889418,0.133828 -2.093134,0.01049 -3.37776,0.0089 -5.810527,0.0062 z"/></svg>